<?xml version="1.0" encoding="UTF-8"?>
<svg class="svg--color" id="Capa_1" data-name="Capa 1" xmlns="http://www.w3.org/2000/svg" viewBox="0 0 24 24">
	<style>
		.svg--color{
		fill: #2fc5a9;
		}
		
	</style>
  <path d="m15.74,12.35h0c-.41,0-.75.34-.75.75s.34.75.75.75.75-.34.75-.75-.34-.75-.75-.75Z"/>
  <path d="m12.01,12.35h0c-.41,0-.75.34-.75.75s.34.75.75.75.75-.34.75-.75-.34-.75-.75-.75Z"/>
  <path d="m8.28,12.35h0c-.41,0-.75.34-.75.75s.34.75.75.75.75-.34.75-.75-.34-.75-.75-.75Z"/>
  <path d="m15.74,15.61h0c-.41,0-.75.34-.75.75s.34.75.75.75.75-.34.75-.75-.34-.75-.75-.75Z"/>
  <path d="m12.01,15.61h0c-.41,0-.75.34-.75.75s.34.75.75.75.75-.34.75-.75-.34-.75-.75-.75Z"/>
  <path d="m8.28,15.61h0c-.41,0-.75.34-.75.75s.34.75.75.75.75-.34.75-.75-.34-.75-.75-.75Z"/>
  <path d="m19.07,5.46c-.72-.72-1.73-1.13-2.93-1.23v-.62c0-.41-.34-.75-.75-.75s-.75.34-.75.75v.58h-5.28v-.58c0-.41-.34-.75-.75-.75s-.75.34-.75.75v.62c-2.58.23-4.17,1.94-4.17,4.6v7.6c0,2.91,1.82,4.72,4.75,4.72h7.1c2.93,0,4.75-1.78,4.75-4.65v-7.66c0-1.39-.42-2.56-1.23-3.37Zm-11.21.25v.65c0,.41.34.75.75.75s.75-.34.75-.75v-.69h5.28v.69c0,.41.34.75.75.75s.75-.34.75-.75v-.64c.78.09,1.43.35,1.87.79.53.53.8,1.31.79,2.31v.24H5.2v-.24c0-2.26,1.34-2.97,2.67-3.12Zm7.69,13.93h-7.1c-2.1,0-3.25-1.14-3.25-3.22v-5.85h13.61v5.92c0,2.61-1.77,3.15-3.25,3.15Z"/>
</svg>